<svg viewBox="0 0 64 64" xmlns="http://www.w3.org/2000/svg">
  <!-- Background circle with slight gradient effect -->
  <defs>
    <radialGradient id="bgGradient" cx="50%" cy="40%" r="60%">
      <stop offset="0%" style="stop-color:#0f1419;stop-opacity:1" />
      <stop offset="100%" style="stop-color:#1a1a2e;stop-opacity:1" />
    </radialGradient>
  </defs>
  
  <circle cx="32" cy="32" r="32" fill="url(#bgGradient)"/>
  
  <!-- Simplified stars - fewer but more visible -->
  <circle cx="12" cy="15" r="1" fill="#ffd700"/>
  <circle cx="52" cy="18" r="0.8" fill="#ffd700"/>
  <circle cx="18" cy="48" r="0.8" fill="#ffd700"/>
  <circle cx="50" cy="45" r="1" fill="#ffd700"/>
  
  <!-- Central space habitat - larger and more prominent -->
  <circle cx="32" cy="32" r="18" fill="#4a90e2" stroke="#2c5aa0" stroke-width="1.5"/>
  
  <!-- Single orbital ring - simplified -->
  <circle cx="32" cy="32" r="24" fill="none" stroke="#16537e" stroke-width="1" opacity="0.6"/>
  
  <!-- Simplified human figures - only 4 for better visibility -->
  <g transform="translate(32,32)">
    <!-- Figure 1 (top) -->
    <g transform="rotate(0) translate(0,-28)">
      <circle cx="0" cy="-2" r="2" fill="#ff6b6b"/>
      <rect x="-1.5" y="0" width="3" height="6" rx="1.5" fill="#ff6b6b"/>
    </g>
    
    <!-- Figure 2 (right) -->
    <g transform="rotate(90) translate(0,-28)">
      <circle cx="0" cy="-2" r="2" fill="#4ecdc4"/>
      <rect x="-1.5" y="0" width="3" height="6" rx="1.5" fill="#4ecdc4"/>
    </g>
    
    <!-- Figure 3 (bottom) -->
    <g transform="rotate(180) translate(0,-28)">
      <circle cx="0" cy="-2" r="2" fill="#45b7d1"/>
      <rect x="-1.5" y="0" width="3" height="6" rx="1.5" fill="#45b7d1"/>
    </g>
    
    <!-- Figure 4 (left) -->
    <g transform="rotate(270) translate(0,-28)">
      <circle cx="0" cy="-2" r="2" fill="#f7b731"/>
      <rect x="-1.5" y="0" width="3" height="6" rx="1.5" fill="#f7b731"/>
    </g>
  </g>
  
  <!-- Central rocket symbol - larger and more prominent -->
  <g transform="translate(32,32)">
    <rect x="-2" y="-8" width="4" height="12" rx="1" fill="#ffd700" stroke="#e6c200" stroke-width="0.5"/>
    <polygon points="0,-10 -3,-8 3,-8" fill="#ffd700" stroke="#e6c200" stroke-width="0.5"/>
    <rect x="-0.5" y="4" width="1" height="4" fill="#ffd700"/>
  </g>
</svg>